<svg xmlns="http://www.w3.org/2000/svg" width="116" height="59" viewBox="0 0 116 59">
  <g id="Groupe_2674" data-name="Groupe 2674" transform="translate(-562 470)">
    <rect id="Rectangle_112" data-name="Rectangle 112" width="116" height="59" transform="translate(562 -470)" fill="none"/>
    <path id="Blick_Logo_Rot_RGB" d="M14.166,21.684H8.333v6.63h5.833a3.315,3.315,0,1,0,0-6.63M12.917,9.807H8.333v6.354h4.584a3.177,3.177,0,1,0,0-6.354M26.111,25.412a10.249,10.249,0,0,1-10.278,10.22H0V2.487H14.722a9.7,9.7,0,0,1,9.723,9.669,9.579,9.579,0,0,1-1.8,5.605,10.173,10.173,0,0,1,3.469,7.654M41.667,35.633H50V12.43H41.667v23.2Zm58.333,0H90.277l-6.944-9.207v9.207H75V1.382h8.333V20.717L90,12.43h9.445l-8.89,11.049Zm-71.112,0h8.333V1.382H28.888V35.635ZM41.11,4.7a4.722,4.722,0,1,1,4.721,4.7A4.71,4.71,0,0,1,41.11,4.7M68.889,19.612l3.61-5.8a12.17,12.17,0,0,0-7.222-2.21,12.431,12.431,0,1,0,0,24.861,12.17,12.17,0,0,0,7.222-2.21l-3.61-5.8a6.756,6.756,0,0,1-3.055.828,5.249,5.249,0,1,1,0-10.5,6.78,6.78,0,0,1,3.055.828" transform="translate(570 -458.442)" fill="#fff"/>
  </g>
</svg>
